<svg xmlns="http://www.w3.org/2000/svg" viewBox="0 0 32 32">
  <g fill="none" fill-rule="evenodd">
    <circle cx="16" cy="16" r="14.5" fill="#FF0000"/>
    <path
      fill="#455A64"
      d="M16 31C7.73 31 1 24.27 1 16S7.73 1 16 1s15 6.73 15 15-6.73 15-15 15Zm0-29C8.28 2 2 8.28 2 16s6.28 14 14 14 14-6.28 14-14S23.72 2 16 2Z"
    />
    <path
      fill="#FFFFFF"
      d="M17 15.3c-.24 0-.46-.18-.49-.43a.5.5 0 0 1 .42-.57l8.5-1.26a.5.5 0 0 1 .15.99l-8.5 1.26c-.03 0-.05.01-.08.01Z"
    />
    <path
      fill="#FFFFFF"
      d="M17 15.3a.5.5 0 0 1-.32-.11l-8.5-6.93a.5.5 0 0 1 .63-.77l8.5 6.93a.5.5 0 0 1-.31.88Z"
    />
    <path
      fill="#FFFFFF"
      d="M15.43 26.63h-.07a.5.5 0 0 1-.43-.56l1.57-11.33a.5.5 0 0 1 .17-.31l5.16-4.53a.5.5 0 1 1 .66.76l-5.02 4.41-1.39 10.68a.5.5 0 0 1-.65.44Z"
    />
    <path
      fill="#FFFFFF"
      d="M15.43 26.63h-.08a.5.5 0 0 1-.39-.33L8.03 8.05a.5.5 0 0 1 .55-.67l13.66 2.39c.1.02.19.06.26.14l3.34 3.27a.5.5 0 0 1 .04.67L15.82 26.44a.5.5 0 0 1-.39.19Zm-6.15-18.12 6.3 16.62 9.24-11.56-2.9-2.85-12.64-2.21Z"
    />
  </g>
</svg>