<svg xmlns="http://www.w3.org/2000/svg" viewBox="0 0 32 32">
  <g fill="none" fill-rule="evenodd">
    <circle cx="16" cy="16" r="14.5" fill="#42A5F5"/>
    <path
      fill="#455A64"
      d="M16 31C7.73 31 1 24.27 1 16S7.73 1 16 1s15 6.73 15 15-6.73 15-15 15Zm0-29C8.28 2 2 8.28 2 16s6.28 14 14 14 14-6.28 14-14S23.72 2 16 2Z"
    />
    <path
      fill="#FFFFFF"
      d="M17.22 21.5h-2.44A2.79 2.79 0 0 1 12 18.72v-.22a.5.5 0 0 1 1 0v.22c0 .98.8 1.78 1.78 1.78h2.44c.98 0 1.78-.8 1.78-1.78 0-.79-.53-1.49-1.29-1.71l-3.69-1.05A2.79 2.79 0 0 1 12 13.28c0-1.53 1.25-2.78 2.78-2.78h2.44c1.53 0 2.78 1.25 2.78 2.78v.22a.5.5 0 1 1-1 0v-.22c0-.98-.8-1.78-1.78-1.78h-2.44c-.98 0-1.78.8-1.78 1.78 0 .79.53 1.49 1.29 1.71l3.69 1.05c1.19.34 2.02 1.44 2.02 2.67 0 1.53-1.25 2.78-2.78 2.78Z"
    />
    <path
      fill="#FFFFFF"
      d="M16 23.5a.5.5 0 0 1-.5-.5v-2a.5.5 0 0 1 1 0v2a.5.5 0 0 1-.5.5Z"
    />
    <path
      fill="#FFFFFF"
      d="M16 11.5a.5.5 0 0 1-.5-.5V9a.5.5 0 0 1 1 0v2a.5.5 0 0 1-.5.5Z"
    />
    <path
      fill="#FFFFFF"
      d="M12.5 26.39a.5.5 0 0 1-.17-.03C7.95 24.81 5 20.64 5 16s2.95-8.81 7.33-10.36a.5.5 0 0 1 .34.94C8.68 7.99 6 11.78 6 16s2.68 8.01 6.67 9.42a.5.5 0 0 1-.17.97Z"
    />
    <path
      fill="#FFFFFF"
      d="M19.5 26.39a.5.5 0 0 1-.47-.33.5.5 0 0 1 .3-.64C23.32 24.01 26 20.22 26 16s-2.68-8.01-6.67-9.42a.5.5 0 0 1 .34-.94C24.05 7.19 27 11.36 27 16s-2.95 8.81-7.33 10.36a.5.5 0 0 1-.17.03Z"
    />
  </g>
</svg>