<?xml version="1.0" encoding="UTF-8"?>
<svg id="Layer_2" data-name="Layer 2" xmlns="http://www.w3.org/2000/svg" viewBox="0 0 494.66 159.22">
  <defs>
    <style>
      .cls-1 {
        fill: #22a0ff;
      }

      .cls-2 {
        fill: #020a17;
      }
    </style>
  </defs>
  <g id="Dimensions">
    <g>
      <g>
        <path class="cls-1" d="M473.71,42c-2.25-2.12-3.37-4.8-3.37-8.06s1.14-6.08,3.44-8.19c2.29-2.11,5.2-3.17,8.72-3.17s6.43,1.06,8.72,3.17c2.29,2.11,3.44,4.85,3.44,8.19s-1.13,5.95-3.37,8.06c-2.25,2.11-5.18,3.17-8.79,3.17s-6.54-1.06-8.79-3.17Z"/>
        <g>
          <path class="cls-2" d="M222.83,113.18c-7.54-4.01-13.35-9.67-17.45-16.99-4.1-7.31-6.15-15.82-6.15-25.51s2.05-18.2,6.15-25.51c4.1-7.31,9.91-12.97,17.45-16.99,7.53-4.01,16.28-6.01,26.24-6.01s18.7,2.01,26.24,6.01c7.54,4.01,13.35,9.67,17.45,16.99,4.1,7.32,6.15,15.82,6.15,25.51s-2.05,18.2-6.15,25.51c-4.1,7.32-9.91,12.98-17.45,16.99-7.54,4.01-16.28,6.01-26.24,6.01s-18.7-2.01-26.24-6.01ZM263.81,96.26c4.27-2.42,7.58-5.84,9.91-10.24,2.33-4.41,3.5-9.52,3.5-15.33s-1.17-10.92-3.5-15.33c-2.34-4.41-5.64-7.82-9.91-10.24-4.28-2.42-9.19-3.63-14.74-3.63s-10.44,1.21-14.67,3.63c-4.23,2.42-7.51,5.84-9.85,10.24-2.34,4.41-3.5,9.52-3.5,15.33s1.17,10.93,3.5,15.33c2.33,4.41,5.62,7.82,9.85,10.24,4.23,2.42,9.12,3.63,14.67,3.63s10.46-1.21,14.74-3.63Z"/>
          <path class="cls-2" d="M367.63,54.62c4.76,2.86,8.46,6.87,11.1,12.03,2.64,5.16,3.97,11.04,3.97,17.65s-1.32,12.49-3.97,17.65c-2.64,5.15-6.34,9.17-11.1,12.03-4.76,2.86-10.18,4.3-16.26,4.3-8.11,0-14.85-2.55-20.22-7.67v34.63h-20.75V51.65h17.98l1.32,7.67c5.46-5.99,12.69-8.99,21.68-8.99,6.08,0,11.5,1.43,16.26,4.3ZM357.72,96.26c2.91-3.04,4.36-7.03,4.36-11.96s-1.45-8.92-4.36-11.96c-2.91-3.04-6.65-4.56-11.24-4.56s-8.31,1.54-11.17,4.63c-2.86,3.09-4.3,7.05-4.3,11.9s1.43,8.81,4.3,11.9c2.86,3.09,6.59,4.63,11.17,4.63s8.33-1.52,11.24-4.56Z"/>
          <path class="cls-2" d="M444.43,54.22c5.2,2.69,9.19,6.48,11.96,11.37,2.78,4.89,4.17,10.6,4.17,17.12,0,2.12-.22,4.72-.66,7.8h-47.98c.61,3.35,2.42,6.06,5.42,8.13,3,2.07,6.83,3.11,11.5,3.11,3.26,0,6.43-.48,9.52-1.45,3.08-.97,5.73-2.33,7.93-4.1l10.84,11.63c-3.7,3.44-8.09,6.08-13.15,7.93-5.07,1.85-10.47,2.78-16.19,2.78-7.58,0-14.14-1.39-19.69-4.16-5.55-2.78-9.83-6.72-12.82-11.83-3-5.11-4.49-11.15-4.49-18.11s1.48-12.64,4.43-17.84c2.95-5.2,7.07-9.23,12.36-12.1,5.29-2.86,11.41-4.3,18.37-4.3s13.31,1.34,18.51,4.03ZM416.47,69.76c-2.6,2.11-4.08,5.07-4.43,8.86h28.82c-.26-3.79-1.65-6.74-4.16-8.86-2.51-2.12-5.88-3.17-10.11-3.17s-7.51,1.06-10.11,3.17Z"/>
          <rect class="cls-2" x="472.06" y="51.65" width="20.75" height="65.3"/>
        </g>
      </g>
      <path class="cls-1" d="M104.17,0h-39.06C29.3,0,0,29.3,0,65.11v29c0,35.8,29.3,65.1,65.11,65.1h39.06c35.8,0,65.1-29.3,65.1-65.1v-29C169.28,29.3,139.98,0,104.17,0ZM156.2,114.32l-28.32,32.28c-6.55,7.47-18.01,8.21-25.46,1.67L13.48,70.24c-7.46-6.55-8.21-18-1.66-25.46L40.14,12.5c6.55-7.46,18-8.21,25.46-1.67l88.93,78.02c7.46,6.55,8.21,18.01,1.67,25.46Z"/>
    </g>
  </g>
</svg>